<svg width="34" height="34" viewBox="0 0 34 34" fill="none" xmlns="http://www.w3.org/2000/svg">
<path d="M23.697 0H10.303C4.63636 0 0 4.59 0 10.2V23.8C0 29.41 4.63636 34 10.303 34H23.697C29.3636 34 34 29.41 34 23.8V10.2C33.8283 4.59 29.3636 0 23.697 0ZM17 26.35C12.1919 26.35 8.24242 22.44 8.24242 17.68C8.24242 12.92 12.1919 9.01 17 9.01C21.8081 9.01 25.7576 12.92 25.7576 17.68C25.7576 22.44 21.8081 26.35 17 26.35ZM26.6162 9.86C25.2424 9.86 24.2121 8.84 24.2121 7.48C24.2121 6.12 25.2424 5.1 26.6162 5.1C27.9899 5.1 29.0202 6.12 29.0202 7.48C29.0202 8.67 27.8182 9.86 26.6162 9.86Z" fill="white"/>
</svg>
