<svg width="230" height="28" viewBox="0 0 230 28" fill="none" xmlns="http://www.w3.org/2000/svg">
<path fill-rule="evenodd" clip-rule="evenodd" d="M150.484 0L152.919 0.894743L151.999 3.31578C156.056 5.26316 158.869 9.31579 158.815 14C158.815 20.5789 153.297 25.9474 146.536 25.9474C145.562 25.9474 144.534 25.7895 143.615 25.5789L142.695 28L140.261 27.1579L141.181 24.7368C137.124 22.7895 134.311 18.7368 134.311 14.0526C134.311 7.47369 139.828 2.10526 146.59 2.10526C147.618 2.10526 148.591 2.21053 149.565 2.42104L150.484 0ZM146.59 5.4737C141.776 5.4737 137.827 9.26314 137.827 14C137.827 17.2631 139.666 20.0526 142.371 21.5263L148.321 5.63158C147.78 5.52631 147.185 5.4737 146.59 5.4737ZM144.859 22.421C145.4 22.5263 145.995 22.579 146.59 22.579C151.458 22.579 155.407 18.7368 155.407 14.0526C155.407 10.7895 153.568 8 150.809 6.52633L144.859 22.421Z" fill="white"/>
<path fill-rule="evenodd" clip-rule="evenodd" d="M96.825 26.1052C89.9554 26.1052 84.3838 20.6842 84.3838 14C84.3838 7.31577 89.9554 1.89472 96.825 1.89472C103.695 1.89472 109.266 7.31577 109.266 14C109.266 20.6842 103.695 26.1052 96.825 26.1052ZM96.825 5.26316C91.8486 5.26316 87.8457 9.15787 87.8457 14C87.8457 18.8421 91.8486 22.7368 96.825 22.7368C101.801 22.7368 105.804 18.8421 105.804 14C105.804 9.15787 101.801 5.26316 96.825 5.26316Z" fill="white"/>
<path d="M132.418 24.9474H112.187V3.10528H132.418V6.47371H115.649V21.5263H132.418V24.9474Z" fill="white"/>
<path fill-rule="evenodd" clip-rule="evenodd" d="M191.703 25.2105H188.241V2.84212H200.844C204.523 2.84212 207.498 5.73685 207.498 9.31579C207.498 12.8947 204.523 15.7895 200.844 15.7895H191.703V25.2105ZM191.703 12.3684H200.844C202.575 12.3684 203.982 11 203.982 9.31579C203.982 7.63158 202.575 6.26317 200.844 6.26317H191.703V12.3684Z" fill="white"/>
<path d="M31.5358 2.89474H53.2268V6.26317H44.0851V25.2105H40.6233V6.26317H31.5358V2.89474Z" fill="white"/>
<path d="M183.102 6.47371V3.10528H162.439V24.9474H183.102V21.5789H165.901V15.6842H182.399V12.3158H165.901V6.47371H183.102Z" fill="white"/>
<path d="M77.5682 25.2105H81.0301V2.89474H74.3768L69.1299 19.1053H68.2103L63.2337 2.89474H56.5263V25.2105H59.9882V6.26317H60.6374L65.6139 22.4737H71.6722L76.9191 6.26317H77.5682V25.2105Z" fill="white"/>
<path fill-rule="evenodd" clip-rule="evenodd" d="M27.8575 25.1053H0L16.5523 2.89474H27.8575V25.1053ZM6.81567 21.7368H24.3956V6.26317H18.2832L6.81567 21.7368Z" fill="white"/>
<path fill-rule="evenodd" clip-rule="evenodd" d="M202.143 25.1053H230V2.89474H218.695L202.143 25.1053ZM226.538 21.7368H208.958L220.426 6.26317H226.538V21.7368Z" fill="white"/>
</svg>
