<svg width="1400" height="170" viewBox="0 0 1400 170" fill="none" xmlns="http://www.w3.org/2000/svg">
<path fill-rule="evenodd" clip-rule="evenodd" d="M915.992 0L930.809 5.43237L925.212 20.1315C949.906 31.9549 967.027 56.5602 966.698 84.9999C966.698 124.944 933.114 157.538 891.957 157.538C886.031 157.538 879.774 156.579 874.177 155.301L868.58 170L853.763 164.887L859.36 150.188C834.666 138.365 817.545 113.759 817.545 85.3196C817.545 45.376 851.129 12.782 892.286 12.782C898.542 12.782 904.468 13.4211 910.395 14.6992L915.992 0ZM892.286 33.2332C862.983 33.2332 838.947 56.2405 838.947 84.9999C838.947 104.812 850.141 121.748 866.604 130.696L902.822 34.1918C899.53 33.5526 895.908 33.2332 892.286 33.2332ZM881.75 136.128C885.043 136.767 888.665 137.087 892.286 137.087C921.919 137.087 945.955 113.759 945.955 85.3196C945.955 65.5075 934.761 48.5715 917.968 39.6241L881.75 136.128Z" fill="#E41F25"/>
<path fill-rule="evenodd" clip-rule="evenodd" d="M589.37 158.496C547.554 158.496 513.641 125.583 513.641 84.9999C513.641 44.4172 547.554 11.5037 589.37 11.5037C631.185 11.5037 665.099 44.4172 665.099 84.9999C665.099 125.583 631.185 158.496 589.37 158.496ZM589.37 31.9549C559.078 31.9549 534.713 55.6014 534.713 84.9999C534.713 114.398 559.078 138.045 589.37 138.045C619.661 138.045 644.027 114.398 644.027 84.9999C644.027 55.6014 619.661 31.9549 589.37 31.9549Z" fill="#E41F25"/>
<path d="M806.02 151.466H682.878V18.8535H806.02V39.3047H703.951V130.696H806.02V151.466Z" fill="#E41F25"/>
<path fill-rule="evenodd" clip-rule="evenodd" d="M1166.89 153.064H1145.81V17.2557H1222.53C1244.92 17.2557 1263.03 34.8309 1263.03 56.5602C1263.03 78.2895 1244.92 95.8646 1222.53 95.8646H1166.89V153.064ZM1166.89 75.094H1222.53C1233.07 75.094 1241.63 66.7858 1241.63 56.5602C1241.63 46.3346 1233.07 38.0264 1222.53 38.0264H1166.89V75.094Z" fill="#E41F25"/>
<path d="M191.957 17.5752H323.989V38.0264H268.344V153.064H247.272V38.0264H191.957V17.5752Z" fill="#E41F25"/>
<path d="M1114.53 39.3047V18.8535H988.759V151.466H1114.53V131.015H1009.83V95.2257H1110.25V74.7745H1009.83V39.3047H1114.53Z" fill="#E41F25"/>
<path d="M472.154 153.064H493.227V17.5752H452.728L420.79 115.996H415.193L384.901 17.5752H344.073V153.064H365.146V38.0264H369.097L399.389 136.447H436.265L468.203 38.0264H472.154V153.064Z" fill="#E41F25"/>
<path fill-rule="evenodd" clip-rule="evenodd" d="M169.567 152.425H0L100.753 17.5752H169.567V152.425ZM41.4867 131.974H148.495V38.0264H111.289L41.4867 131.974Z" fill="#E41F25"/>
<path fill-rule="evenodd" clip-rule="evenodd" d="M1230.43 152.425H1400V17.5752H1331.18L1230.43 152.425ZM1378.93 131.974H1271.92L1341.72 38.0264H1378.93V131.974Z" fill="#E41F25"/>
</svg>
