<svg width="35" height="57" viewBox="0 0 35 57" fill="none" xmlns="http://www.w3.org/2000/svg">
<path d="M15.4093 22.558V12.5481H18.8726V22.558H15.4093Z" fill="#E41F25"/>
<path d="M18.8726 28.7159V24.8554H15.4093V28.7159H18.8726Z" fill="#E41F25"/>
<path fill-rule="evenodd" clip-rule="evenodd" d="M15.4093 0.5H18.8726V3.48941C27.4011 4.35792 34.0817 11.5852 34.0817 20.3384C34.0817 29.0959 27.397 36.3248 18.8726 37.1885V56.5H15.4093V37.1885C6.87631 36.3162 0.200195 29.0959 0.200195 20.3384C0.200195 11.5881 6.884 4.36272 15.4093 3.49025V0.5ZM17.1367 6.86521C9.70915 6.86521 3.6635 12.9109 3.6635 20.3384C3.6635 27.7659 9.70915 33.8116 17.1367 33.8116C24.5728 33.8116 30.6098 27.7659 30.6098 20.3384C30.6098 12.9109 24.5641 6.86521 17.1367 6.86521Z" fill="#E41F25"/>
</svg>
