<svg width="34" height="34" viewBox="0 0 34 34" fill="none" xmlns="http://www.w3.org/2000/svg">
<path fill-rule="evenodd" clip-rule="evenodd" d="M2.81971 2.81971C0.5 5.13943 0.5 8.87293 0.5 16.34V17.66C0.5 25.1271 0.5 28.8605 2.81971 31.1803C5.13943 33.5 8.87293 33.5 16.34 33.5H17.66C25.1271 33.5 28.8605 33.5 31.1803 31.1803C33.5 28.8605 33.5 25.1271 33.5 17.66V16.34C33.5 8.87293 33.5 5.13943 31.1803 2.81971C28.8605 0.5 25.1271 0.5 17.66 0.5H16.34C8.87293 0.5 5.13943 0.5 2.81971 2.81971ZM6.06883 10.5376C6.24758 19.1176 10.5376 24.2738 18.0588 24.2738H18.4851V19.3651C21.2489 19.6401 23.3387 21.6613 24.1775 24.2738H28.0826C27.0101 20.3688 24.1912 18.2101 22.4312 17.3851C24.1912 16.3676 26.6662 13.8926 27.2574 10.5376H23.7099C22.9399 13.2601 20.6576 15.7351 18.4851 15.9688V10.5376H14.9375V20.0526C12.7375 19.5026 9.96007 16.8351 9.83632 10.5376H6.06883Z" fill="white"/>
</svg>
